<?xml version="1.0" encoding="UTF-8"?>
<svg id="Layer_1" data-name="Layer 1" xmlns="http://www.w3.org/2000/svg" viewBox="0 0 405.62 245.68">
  <defs>
    <style>
      .cls-1 {
        fill: #f8e942;
      }

      .cls-2 {
        fill: #8684bf;
      }

      .cls-3 {
        fill: #108d95;
      }

      .cls-4 {
        fill: #babbbd;
      }
    </style>
  </defs>
  <g>
    <path class="cls-2" d="M224.88,198.36h14.26c5.64,0,10.21-4.57,10.21-10.21v-20.36c0-5.64-4.57-10.21-10.21-10.21h-28.44c-1.16,0-1.16,1.17-1.16,1.17v52.83s0,1.16,1.16,1.16h7.13c1.16,0,1.17-1.17,1.17-1.17v-44.38h18.43c1.41,0,2.55,1.14,2.55,2.55v16.45c0,1.41-1.14,2.55-2.55,2.55h-18.43l4.72,8.44s.69,1.17,1.16,1.17Z"/>
    <g>
      <polygon class="cls-1" points="197.69 157.37 197.69 145.42 188.22 145.42 188.22 152.1 197.69 157.37"/>
      <path class="cls-3" d="M188.22,163.97v33.22c0,1.17,1.17,1.17,1.17,1.17h7.13c1.16,0,1.16-1.16,1.16-1.16v-39.77l-9.05,4.96s-.41.25-.41,1.58Z"/>
    </g>
    <path class="cls-2" d="M334.7,167.36h-15.03v29.84s0,1.17-1.17,1.17h-7.13c-1.16,0-1.16-1.16-1.16-1.16v-38.64c0-1.16,1.16-1.16,1.16-1.16h2.36s.62,0,1.17,1.17l4.74,8.84,4.81-8.85s.59-1.16,1.16-1.16h9.09s1.18,0,1.18,1.16v7.64s0,1.16-1.16,1.16"/>
    <g>
      <path class="cls-2" d="M368.4,166.2v-7.64c0-1.16-1.16-1.16-1.16-1.16h-9.09s-.57-.02-1.17,1.16l-4.78,8.8h15.04s1.16,0,1.16-1.16Z"/>
      <path class="cls-2" d="M368.4,197.2v-7.29c0-1.16-1.19-1.15-1.19-1.15h-15.02v-21.4h0v-9.96h0v-9.65c0-1.17-1.18-1.17-1.18-1.17h-7.12c-1.16,0-1.16,1.16-1.16,1.16v44.27c0,6.35,7.63,6.35,7.63,6.35h16.88s1.16,0,1.16-1.16Z"/>
    </g>
    <path class="cls-2" d="M296.42,188.67h-27.23s0-13.28,0-13.28l2.52,4.41s3.15,4.97,11.6,4.97h6.02c5.64,0,10.21-4.57,10.21-10.21v-6.86c0-5.64-4.57-10.21-8.72-10.21h-25.19c-6,0-5.89,5.14-5.89,5.14v26.02s0,4.56,0,4.56c0,5.05,5.48,5.05,5.48,5.05h24.97c8.08,0,7.4-6.22,7.4-6.22v-2.24c0-1.16-1.16-1.15-1.16-1.15ZM269.19,167.4h18.72c1.18,0,2.28.87,2.28,2.28v2.94c0,1.41-1.22,2.63-2.63,2.63l-18.35.02v-7.87Z"/>
    <path class="cls-3" d="M94.09,167.12h27.23v13.28s-2.52-4.41-2.52-4.41c0,0-3.15-4.97-11.6-4.97h-6.02c-5.64,0-10.21,4.57-10.21,10.21v6.86c0,5.64,4.57,10.21,8.72,10.21h25.19c6,0,5.89-5.14,5.89-5.14v-26.02s0-4.56,0-4.56c0-5.05-5.48-5.05-5.48-5.05h-24.97c-8.08,0-7.4,6.22-7.4,6.22v2.24c0,1.16,1.16,1.15,1.16,1.15ZM121.33,188.39h-18.72c-1.18,0-2.28-.87-2.28-2.28v-2.94c0-1.41,1.22-2.63,2.63-2.63l18.35-.02v7.87Z"/>
    <path class="cls-3" d="M140.3,167.36h23.99l-24.93,21.39c-.25.25-.22.76-.22.76v7.53s-.07,1.17,1.16,1.17h38.33c1.16,0,1.16-1.16,1.16-1.16v-7.14c0-1.16-1.16-1.16-1.16-1.16h-24.97l16.9-14.5c.63-.63.02-1.69.02-1.69l-2.99-5.15,9.84.02c1.17,0,1.17-1.15,1.17-1.15v-7.73c0-1.16-1.16-1.16-1.16-1.16h-30.73c-7.71,0-7.57,7.03-7.57,7.03v1.76s0,1.18,1.16,1.18Z"/>
    <path class="cls-3" d="M80.39,158.95l-15.15,11.21,16.31,5.4s1.17.37,1.17,1.2v20.35s0,1.16-1.16,1.16h-7.03c-1.21,0-1.17-1.16-1.17-1.16v-14.41l-17.32-5.74-3.94,2.91v17.32s.08,1.16-1.16,1.16h-7.13s-1.18,0-1.18-1.17v-46.57h-4.26c-1.24,0-1.16-1.16-1.16-1.16v-4.69s-.05-1.16,1.16-1.16h12.56s1.16-.05,1.16,1.16v23.55l14.32-10.45s.46-.47,1.7-.47h11.77s.82.15.73,1.09c-.01.16-.08.31-.24.46Z"/>
  </g>
  <g>
    <g>
      <g>
        <path class="cls-3" d="M212.05,122.89l70.29-29.09c.97-.45.8-1.39.64-1.71-.36-.74-1.47-.56-1.47-.56l-53.85,7.9-2.04-54.51s0-.77-.56-1.03-1.71-.31-1.91.63l-16.57,73.96s-.47,1.96,1.12,3.45c.63.59,2.42,1.63,4.35.97Z"/>
        <circle class="cls-4" cx="251.83" cy="70.37" r="11.92"/>
      </g>
      <g>
        <path class="cls-2" d="M193.56,122.89l-70.29-29.09c-.97-.45-.8-1.39-.64-1.71.36-.74,1.47-.56,1.47-.56l53.85,7.9,2.04-54.51s0-.77.56-1.03,1.71-.31,1.91.63l16.57,73.96s.47,1.96-1.12,3.45c-.63.59-2.42,1.63-4.35.97Z"/>
        <circle class="cls-4" cx="153.79" cy="70.37" r="11.92"/>
      </g>
    </g>
    <polygon class="cls-1" points="202.81 72.36 221 32.93 184.62 32.93 202.81 72.36"/>
  </g>
</svg>