<svg xmlns="http://www.w3.org/2000/svg" width="98.768" height="86.83" viewBox="0 0 98.768 86.83">
  <g id="Group_221" data-name="Group 221" transform="translate(-1055.639 -337.099)">
    <g id="Data_Secure_Icon" data-name="Data Secure Icon" transform="translate(1055.639 337.099)">
      <g id="Group_219" data-name="Group 219" transform="translate(32.936 11.93)">
        <path id="Path_814" data-name="Path 814" d="M101.39,167.438a2.484,2.484,0,0,1-.938-.186,45.994,45.994,0,0,1-13.7-8.641,2.483,2.483,0,0,1,3.354-3.661,40.9,40.9,0,0,0,12.228,7.7,2.483,2.483,0,0,1-.943,4.78Z" transform="translate(-68.482 -92.608)" fill="#108d95"/>
        <path id="Path_815" data-name="Path 815" d="M81.262,96.407a2.554,2.554,0,0,1-1.017-4.9c28.39-12.274,29.022-49.589,28.771-58.318L81.257,26.684,53.495,33.2c-.037,1.069-.06,2.564-.019,4.386a2.552,2.552,0,0,1-2.495,2.606h-.056a2.55,2.55,0,0,1-2.551-2.5c-.088-4.088.121-6.643.125-6.75a2.561,2.561,0,0,1,1.961-2.276l30.211-7.089a2.6,2.6,0,0,1,1.166,0l30.216,7.089a2.551,2.551,0,0,1,1.961,2.276c.167,2.03,3.707,49.928-31.744,65.254a2.521,2.521,0,0,1-1.013.209Z" transform="translate(-48.353 -21.507)" fill="#108d95"/>
      </g>
      <rect id="Rectangle_46" data-name="Rectangle 46" width="36.195" height="31.424" rx="12.96" transform="translate(14.361 46.491)" fill="#babbbd"/>
      <g id="Group_220" data-name="Group 220" transform="translate(25.91 53.413)">
        <path id="Path_816" data-name="Path 816" d="M45.98,117.52a6.03,6.03,0,1,0-7.9,5.733,1.421,1.421,0,0,0-.711,1.231V132a1.432,1.432,0,0,0,1.431,1.431h2.309A1.432,1.432,0,0,0,42.538,132v-7.517a1.433,1.433,0,0,0-.711-1.231,6.038,6.038,0,0,0,4.158-5.733Z" transform="translate(-33.599 -111.169)" fill="#fff"/>
        <path id="Path_817" data-name="Path 817" d="M40.733,133.374H38.424a1.751,1.751,0,0,1-1.747-1.747V124.11a1.728,1.728,0,0,1,.409-1.12,6.351,6.351,0,1,1,4.99,0,1.7,1.7,0,0,1,.409,1.12v7.517a1.751,1.751,0,0,1-1.747,1.747Zm-1.152-21.937a5.714,5.714,0,0,0-1.775,11.145.31.31,0,0,1,.214.269.315.315,0,0,1-.153.307,1.1,1.1,0,0,0-.553.957v7.517a1.118,1.118,0,0,0,1.115,1.115h2.309a1.118,1.118,0,0,0,1.115-1.115v-7.517a1.11,1.11,0,0,0-.553-.957.315.315,0,0,1-.153-.307.321.321,0,0,1,.218-.269,5.714,5.714,0,0,0-1.775-11.145Z" transform="translate(-33.23 -110.8)" fill="#babbbd"/>
      </g>
      <path id="Path_818" data-name="Path 818" d="M25.549,81.35a2.439,2.439,0,0,1-2.439-2.439v-6.2c0-4.79,4.938-8.539,11.247-8.539S45.6,67.919,45.6,72.709v5.863a2.439,2.439,0,0,1-4.878,0V72.709c0-1.733-2.616-3.665-6.374-3.665s-6.374,1.933-6.374,3.665v6.2A2.439,2.439,0,0,1,25.54,81.35Z" transform="translate(-1.901 -32.42)" fill="#babbbd"/>
      <path id="Path_819" data-name="Path 819" d="M97.26,78.662l-5.97,5.514s6.332,2.8,9.194,11.772l4.8,1.877s9.728-19.28,25.593-25.426c0,0-18.866,1.552-26.713,15.029a21.782,21.782,0,0,0-6.9-8.771Z" transform="translate(-38.407 -36.826)" fill="#babbbd"/>
    </g>
  </g>
</svg>
